<svg width="1110" height="35" viewBox="0 0 1110 35" fill="none" xmlns="http://www.w3.org/2000/svg">
<g clip-path="url(#clip0)">
<path d="M32.1409 24.7219C31.965 24.2968 31.8001 23.8499 31.6242 23.4683L30.8108 21.6479L30.7778 21.6152C28.3595 16.3829 25.7763 11.0634 23.0393 5.83105L22.9293 5.61304C22.6545 5.1007 22.3797 4.53387 22.0939 4.01064C21.7422 3.3893 21.4014 2.72436 20.8408 2.09212C20.2944 1.43059 19.6066 0.89761 18.8273 0.531638C18.0479 0.165666 17.1963 -0.0241699 16.334 -0.0241699C15.4716 -0.0241699 14.6201 0.165666 13.8407 0.531638C13.0613 0.89761 12.3736 1.43059 11.8271 2.09212C11.3105 2.72436 10.9258 3.3893 10.574 4.01064C10.2992 4.57747 10.0244 5.13341 9.73861 5.64574L9.62868 5.86375C6.93558 11.0961 4.30842 16.4156 1.89012 21.6479L1.82417 21.7133C1.58234 22.2802 1.29654 22.8688 1.02173 23.501C0.845856 23.8826 0.669979 24.2968 0.494103 24.7546C0.0192726 25.9535 -0.132356 27.2543 0.0541616 28.529C0.240679 29.8036 0.758904 31.0081 1.55776 32.0236C2.35662 33.0392 3.40855 33.8308 4.60986 34.3204C5.81117 34.8101 7.12041 34.9809 8.40854 34.8159C9.64349 34.6547 10.8326 34.2468 11.9041 33.6169C13.3331 32.8211 14.7071 31.6656 16.246 29.9978C17.785 31.6656 19.192 32.8211 20.588 33.6278C21.9305 34.4092 23.4508 34.8405 25.0069 34.8813C26.8089 34.8888 28.5528 34.2494 29.9166 33.0813C31.2803 31.9133 32.1719 30.2953 32.4267 28.5263C32.7211 27.255 32.6215 25.9252 32.1409 24.711V24.7219ZM16.356 26.5314C14.4653 24.1333 13.2341 21.9313 12.8164 20.0455C12.6434 19.3467 12.6061 18.6216 12.7065 17.909C12.7835 17.3531 12.9923 16.8625 13.2781 16.4483C13.9377 15.4999 15.0918 14.9113 16.356 14.9113C16.9563 14.8931 17.5518 15.023 18.089 15.2894C18.6262 15.5558 19.0883 15.9502 19.4338 16.4374C19.7196 16.8734 19.9284 17.3531 19.9944 17.909C20.1043 18.5412 20.0604 19.2716 19.8845 20.0455C19.4668 21.8986 18.2356 24.1224 16.356 26.5314ZM30.3601 28.1447C30.2352 29.0429 29.8752 29.8929 29.3159 30.6101C28.7566 31.3273 28.0175 31.8867 27.1724 32.2325C26.3369 32.5813 25.4136 32.6794 24.5122 32.5813C23.6328 32.4723 22.7535 32.1889 21.8521 31.6656C20.3555 30.7484 19.0098 29.6087 17.8619 28.2864C20.1703 25.4523 21.5663 22.8688 22.0939 20.5688C22.3467 19.4787 22.3797 18.4976 22.2698 17.5929C22.1325 16.7353 21.8101 15.9173 21.3245 15.1947C20.77 14.4113 20.03 13.7749 19.1693 13.3415C18.3087 12.9081 17.354 12.6911 16.3889 12.7094C14.3554 12.7094 12.5416 13.6468 11.4424 15.1838C10.9476 15.9045 10.6278 16.7291 10.5081 17.5929C10.3652 18.5085 10.3981 19.5223 10.6839 20.5688C11.2116 22.8688 12.6406 25.485 14.916 28.3082C13.7876 29.6557 12.4387 30.8054 10.9258 31.7092C10.0134 32.2325 9.14502 32.505 8.26564 32.614C6.89808 32.7877 5.51664 32.4191 4.4216 31.5884C3.32656 30.7576 2.60644 29.5318 2.41775 28.1774C2.30783 27.3054 2.38477 26.4333 2.73653 25.4523C2.84645 25.1034 3.01133 24.7546 3.18721 24.3404C3.42904 23.7736 3.71484 23.1849 3.98965 22.5963L4.03362 22.52C6.40795 17.3204 9.00212 12.0117 11.6952 6.81211L11.8052 6.5941C12.08 6.07086 12.3548 5.51493 12.6406 4.9917C12.9264 4.43576 13.2341 3.90163 13.6299 3.4656C13.9724 3.06012 14.4004 2.73403 14.8837 2.51029C15.3671 2.28654 15.894 2.17059 16.4274 2.17059C16.9608 2.17059 17.4877 2.28654 17.9711 2.51029C18.4544 2.73403 18.8824 3.06012 19.2249 3.4656C19.6097 3.90163 19.9284 4.43576 20.2142 4.9917C20.4891 5.51493 20.7639 6.08177 21.0497 6.5941L21.1596 6.81211C23.8417 12.0117 26.4359 17.3204 28.8542 22.52L28.8872 22.5527C29.173 23.1195 29.4148 23.7518 29.6896 24.2968C29.8655 24.7219 30.0413 25.0598 30.1513 25.4196C30.3601 26.4006 30.47 27.2727 30.3601 28.1447ZM45.6614 26.2916C44.8331 26.3036 44.0126 26.1306 43.261 25.7852C42.5093 25.4399 41.8457 24.9312 41.3194 24.2968C40.1367 22.9451 39.509 21.2022 39.5606 19.4133C39.5426 17.5855 40.1905 15.8126 41.3854 14.4208C41.9381 13.7783 42.6261 13.2638 43.4009 12.9135C44.1758 12.5632 45.0187 12.3856 45.8702 12.3933C46.6715 12.3715 47.4652 12.5522 48.1766 12.9183C48.8881 13.2844 49.494 13.824 49.9374 14.4862L50.0473 12.7748H53.257V25.9428H50.0363L49.9264 24.0243C49.4693 24.7314 48.8375 25.3108 48.091 25.7077C47.3446 26.1045 46.5082 26.3055 45.6614 26.2916ZM46.4968 23.1522C47.1343 23.1522 47.6949 22.9778 48.2226 22.6617C48.7062 22.3129 49.1019 21.855 49.4097 21.2991C49.6845 20.7432 49.8274 20.0782 49.8274 19.337C49.8703 18.6932 49.7439 18.0494 49.4607 17.4685C49.1774 16.8877 48.747 16.3897 48.2116 16.0232C47.6971 15.7053 47.103 15.5368 46.4968 15.5368C45.8906 15.5368 45.2965 15.7053 44.782 16.0232C44.2983 16.372 43.9026 16.8298 43.5948 17.3858C43.3041 17.9989 43.1611 18.6706 43.1771 19.3479C43.1343 19.9917 43.2606 20.6355 43.5439 21.2163C43.8271 21.7972 44.2575 22.2952 44.793 22.6617C45.3096 22.9778 45.8702 23.1522 46.4968 23.1522ZM58.7532 9.22116C58.7532 9.60268 58.6872 9.9515 58.5113 10.2349C58.3355 10.5074 58.0936 10.7582 57.7749 10.9326C57.4561 11.107 57.1153 11.1724 56.7636 11.1724C56.4118 11.1724 56.0601 11.107 55.7413 10.9326C55.4398 10.7661 55.1863 10.526 55.0048 10.2349C54.8346 9.9244 54.7511 9.57441 54.763 9.22116C54.763 8.82874 54.8399 8.47991 55.0048 8.2074C55.1807 7.88038 55.4335 7.68416 55.7413 7.50975C56.0601 7.33534 56.4008 7.25904 56.7636 7.25904C57.1135 7.25104 57.4595 7.33322 57.7677 7.49754C58.076 7.66186 58.336 7.90269 58.5223 8.1965C58.6823 8.5143 58.7615 8.86606 58.7532 9.22116ZM55.0158 25.8992V12.753H58.5113V25.921H55.0048L55.0158 25.8992ZM67.8548 16.1976V16.2412C67.6899 16.1649 67.47 16.1322 67.3052 16.0995C67.0853 16.0559 66.9094 16.0559 66.7006 16.0559C65.7223 16.0559 64.9858 16.3393 64.5021 16.9279C63.9745 17.5275 63.7327 18.3668 63.7327 19.446V25.9101H60.2261V12.7421H63.4469L63.5568 14.7369C63.9085 14.0393 64.3262 13.516 64.9198 13.1236C65.5103 12.7423 66.2054 12.5519 66.9094 12.5786C67.1623 12.5786 67.4041 12.6004 67.6129 12.644C67.7229 12.6767 67.7888 12.6767 67.8548 12.7094V16.1976ZM69.2618 25.8992V7.34624H72.7573V14.4317C73.252 13.7994 73.8126 13.3089 74.5161 12.9274C75.6298 12.3859 76.895 12.2323 78.1076 12.4914C79.3202 12.7504 80.4094 13.4071 81.1994 14.3554C82.3847 15.7099 83.0126 17.4572 82.9582 19.2498C82.9763 21.0776 82.3283 22.8504 81.1334 24.2423C80.5807 24.8848 79.8927 25.3993 79.1179 25.7496C78.343 26.0999 77.5001 26.2774 76.6486 26.2698C75.8473 26.2916 75.0536 26.1109 74.3422 25.7448C73.6307 25.3786 73.0248 24.8391 72.5814 24.1769L72.4715 25.8883L69.2618 25.921V25.8992ZM76.022 23.1522C76.6486 23.1522 77.2092 22.9778 77.7368 22.6617C78.2205 22.3129 78.6162 21.855 78.924 21.2991C79.2098 20.7432 79.3417 20.0782 79.3417 19.337C79.3417 18.6066 79.2098 17.9417 78.924 17.3858C78.6353 16.8497 78.2298 16.3842 77.7368 16.0232C77.2223 15.7053 76.6282 15.5368 76.022 15.5368C75.4158 15.5368 74.8217 15.7053 74.3072 16.0232C73.8126 16.372 73.4279 16.8298 73.1091 17.3858C72.8184 17.9989 72.6754 18.6706 72.6914 19.3479C72.6485 19.9917 72.7749 20.6355 73.0581 21.2163C73.3414 21.7972 73.7718 22.2952 74.3072 22.6617C74.8239 22.9778 75.3845 23.1522 76.022 23.1522ZM84.2772 25.9101V12.7421H87.498L87.6079 14.4535C88.0126 13.7975 88.5868 13.2606 89.2709 12.8984C89.955 12.5362 90.7243 12.3618 91.4992 12.3933C92.3852 12.3781 93.2562 12.6223 94.003 13.0954C94.7499 13.5685 95.3395 14.2494 95.6982 15.053C96.0829 15.8815 96.2918 16.9061 96.2918 18.0507V25.9428H92.7853V18.5085C92.7853 17.5929 92.5764 16.8734 92.1587 16.3393C91.741 15.8161 91.1694 15.5326 90.4439 15.5326C89.9163 15.5326 89.4546 15.6417 89.0479 15.8815C88.6631 16.1322 88.3444 16.4483 88.1025 16.8952C87.858 17.347 87.7368 17.8543 87.7508 18.3668V25.9101H84.2772ZM98.0396 25.9101V7.33534H101.546V14.4208C102.021 13.785 102.639 13.2678 103.351 12.9102C104.062 12.5525 104.848 12.3644 105.646 12.3606C106.475 12.3485 107.295 12.5216 108.047 12.8669C108.798 13.2123 109.462 13.721 109.988 14.3554C111.165 15.7098 111.788 17.4518 111.736 19.2389C111.755 21.0669 111.107 22.84 109.911 24.2314C109.359 24.8739 108.671 25.3883 107.896 25.7387C107.121 26.089 106.278 26.2665 105.426 26.2589C104.625 26.2807 103.831 26.1 103.12 25.7339C102.408 25.3677 101.803 24.8282 101.359 24.166L101.26 25.8774L98.0396 25.9101ZM104.833 23.1522C105.47 23.1522 106.031 22.9778 106.548 22.6617C107.042 22.3129 107.427 21.855 107.746 21.2991C108.021 20.7432 108.163 20.0782 108.163 19.337C108.206 18.6932 108.08 18.0494 107.797 17.4685C107.513 16.8877 107.083 16.3897 106.548 16.0232C106.033 15.7053 105.439 15.5368 104.833 15.5368C104.227 15.5368 103.632 15.7053 103.118 16.0232C102.634 16.372 102.239 16.8298 101.931 17.3858C101.624 17.9934 101.48 18.6691 101.513 19.3479C101.47 19.9917 101.597 20.6355 101.88 21.2163C102.163 21.7972 102.594 22.2952 103.129 22.6617C103.646 22.9778 104.173 23.1522 104.833 23.1522Z" fill="#FF385C"/>
</g>
<g clip-path="url(#clip1)">
<path d="M203.184 7.4408V15.8745H195.5V7.4408H191.852V27.5728H195.5V19.413H203.184V27.5728H206.833V7.4408H203.184Z" fill="#33475B"/>
<path d="M218.508 21.0651C218.508 21.872 218.191 22.6457 217.624 23.2163C217.058 23.7868 216.291 24.1073 215.49 24.1073C214.69 24.1073 213.922 23.7868 213.356 23.2163C212.79 22.6457 212.472 21.872 212.472 21.0651V12.4423H209.012V21.0651C209.012 22.7954 209.694 24.4548 210.907 25.6782C212.121 26.9017 213.767 27.589 215.484 27.589C217.201 27.589 218.847 26.9017 220.061 25.6782C221.275 24.4548 221.957 22.7954 221.957 21.0651V12.4423H218.508V21.0651Z" fill="#33475B"/>
<path d="M244.148 13.3305C244.148 11.5631 245.308 11.0027 246.579 11.0027C247.604 11.0027 248.957 11.7883 249.841 12.7414L252.108 10.0496C250.977 8.50739 248.681 7.4408 246.803 7.4408C243.049 7.4408 240.334 9.65687 240.334 13.3305C240.334 20.1463 248.599 17.9843 248.599 21.7984C248.599 22.9749 247.466 24.0145 246.168 24.0145C244.122 24.0145 243.458 23.0056 242.518 21.939L240.003 24.5748C241.612 26.5657 243.596 27.5764 245.973 27.5764C249.539 27.5764 252.408 25.3333 252.408 21.8273C252.408 14.2602 244.143 16.6114 244.143 13.3305" fill="#33475B"/>
<path d="M295.281 24.3568C293.236 24.3568 292.655 23.465 292.655 22.0993V16.0547H295.833V12.9918H292.655V8.95062L289.146 10.5379V22.8506C289.146 26 291.302 27.5873 294.258 27.5873C294.722 27.5958 295.186 27.5584 295.642 27.4756L296.498 24.2992C296.112 24.3262 295.669 24.3532 295.281 24.3532" fill="#33475B"/>
<path d="M231.681 12.5432C229.966 12.5432 228.771 13.0441 227.614 14.1881V7.56152H224.148V19.8436C224.148 24.4415 227.446 27.5909 231.151 27.5909C235.263 27.5909 238.879 24.3857 238.879 20.0688C238.879 15.806 235.55 12.545 231.681 12.545V12.5432ZM231.659 24.0758C230.881 24.0758 230.121 23.8433 229.474 23.4078C228.828 22.9722 228.324 22.3532 228.026 21.6289C227.728 20.9046 227.65 20.1077 227.802 19.3388C227.954 18.5699 228.328 17.8636 228.878 17.3093C229.428 16.755 230.129 16.3775 230.892 16.2245C231.655 16.0716 232.445 16.1501 233.164 16.4501C233.883 16.7501 234.497 17.2581 234.929 17.91C235.361 18.5618 235.592 19.3281 235.592 20.1121C235.592 21.1633 235.177 22.1715 234.44 22.9148C233.702 23.6582 232.702 24.0758 231.659 24.0758Z" fill="#33475B"/>
<path d="M269.314 19.885C269.314 15.561 265.705 12.363 261.587 12.363C257.881 12.363 254.583 15.5123 254.583 20.1102V32.3995H258.049V25.7639C259.204 26.9062 260.402 27.4089 262.114 27.4089C265.984 27.4089 269.312 24.1496 269.312 19.885H269.314ZM266.032 19.8418C266.032 20.6257 265.802 21.3921 265.37 22.0439C264.937 22.6957 264.323 23.2038 263.605 23.5038C262.886 23.8038 262.095 23.8823 261.333 23.7293C260.57 23.5764 259.869 23.1989 259.319 22.6445C258.769 22.0902 258.395 21.3839 258.243 20.6151C258.091 19.8462 258.169 19.0492 258.467 18.3249C258.764 17.6007 259.268 16.9816 259.915 16.5461C260.562 16.1105 261.322 15.8781 262.1 15.8781C263.143 15.8781 264.143 16.2957 264.881 17.039C265.618 17.7823 266.032 18.7905 266.032 19.8418Z" fill="#33475B"/>
<path d="M280.511 12.1936V8.68394C280.971 8.46722 281.361 8.12322 281.635 7.69198C281.908 7.26074 282.055 6.76001 282.057 6.24806V6.16699C282.057 5.45023 281.775 4.76283 281.272 4.25601C280.769 3.74919 280.087 3.46446 279.376 3.46446H279.296C278.584 3.46446 277.903 3.74919 277.4 4.25601C276.897 4.76283 276.614 5.45023 276.614 6.16699V6.24806C276.617 6.76001 276.763 7.26074 277.037 7.69198C277.311 8.12322 277.7 8.46722 278.161 8.68394V12.1936C276.838 12.3976 275.592 12.9501 274.55 13.7953L265.001 6.29851C265.069 6.05129 265.105 5.7964 265.108 5.54C265.109 4.93771 264.933 4.34863 264.602 3.84728C264.271 3.34592 263.8 2.95481 263.248 2.72342C262.696 2.49203 262.089 2.43075 261.503 2.54733C260.917 2.66392 260.378 2.95313 259.955 3.37838C259.531 3.80363 259.243 4.34583 259.126 4.93638C259.008 5.52693 259.067 6.13931 259.295 6.69606C259.523 7.25281 259.91 7.72892 260.406 8.06417C260.902 8.39941 261.486 8.57873 262.084 8.57945C262.606 8.57709 263.119 8.4367 263.571 8.17227L272.975 15.5466C272.13 16.8329 271.689 18.3461 271.71 19.8887C271.731 21.4313 272.212 22.9318 273.091 24.1947L270.231 27.0774C270 27.0029 269.759 26.9635 269.516 26.9603C269.026 26.9606 268.546 27.1075 268.139 27.3825C267.731 27.6574 267.413 28.048 267.226 28.5048C267.038 28.9617 266.989 29.4644 267.085 29.9493C267.181 30.4342 267.417 30.8797 267.764 31.2293C268.111 31.5789 268.552 31.817 269.034 31.9136C269.515 32.0101 270.013 31.9608 270.467 31.7717C270.92 31.5827 271.307 31.2624 271.58 30.8515C271.853 30.4405 271.999 29.9572 271.999 29.4628C271.996 29.2181 271.957 28.9752 271.883 28.7421L274.712 25.89C275.635 26.6057 276.708 27.099 277.849 27.3322C278.99 27.5654 280.169 27.5323 281.295 27.2354C282.422 26.9385 283.466 26.3857 284.347 25.6193C285.229 24.853 285.925 23.8934 286.382 22.8141C286.839 21.7347 287.045 20.5643 286.984 19.3924C286.922 18.2206 286.596 17.0784 286.029 16.0532C285.463 15.0281 284.671 14.1474 283.714 13.4784C282.758 12.8094 281.662 12.3699 280.511 12.1936ZM279.338 23.7352C278.564 23.7345 277.808 23.5026 277.165 23.0686C276.522 22.6347 276.02 22.0184 275.725 21.2974C275.429 20.5765 275.352 19.7833 275.503 19.0182C275.654 18.2531 276.027 17.5504 276.575 16.9989C277.122 16.4474 277.819 16.0718 278.579 15.9196C279.338 15.7675 280.125 15.8456 280.84 16.144C281.555 16.4425 282.166 16.9479 282.596 17.5965C283.027 18.245 283.256 19.0076 283.257 19.7877C283.257 20.8342 282.844 21.8378 282.11 22.5778C281.376 23.3177 280.38 23.7334 279.342 23.7334" fill="#FF7A59"/>
</g>
<g clip-path="url(#clip2)">
<path d="M420.761 17.8885C420.761 22.7302 416.918 26.2981 412.201 26.2981C407.484 26.2981 403.641 22.7302 403.641 17.8885C403.641 13.0125 407.484 9.47882 412.201 9.47882C416.918 9.47882 420.761 13.0125 420.761 17.8885ZM417.014 17.8885C417.014 14.8628 414.787 12.7926 412.201 12.7926C409.616 12.7926 407.388 14.8628 407.388 17.8885C407.388 20.8838 409.616 22.9843 412.201 22.9843C414.787 22.9843 417.014 20.88 417.014 17.8885Z" fill="#EA4335"/>
<path d="M439.228 17.8885C439.228 22.7302 435.385 26.2981 430.668 26.2981C425.951 26.2981 422.108 22.7302 422.108 17.8885C422.108 13.0163 425.951 9.47882 430.668 9.47882C435.385 9.47882 439.228 13.0125 439.228 17.8885ZM435.481 17.8885C435.481 14.8628 433.254 12.7926 430.668 12.7926C428.083 12.7926 425.855 14.8628 425.855 17.8885C425.855 20.8838 428.083 22.9843 430.668 22.9843C433.254 22.9843 435.481 20.88 435.481 17.8885Z" fill="#FBBC05"/>
<path d="M456.926 9.98689V25.0848C456.926 31.2953 453.209 33.8319 448.816 33.8319C444.68 33.8319 442.191 31.1058 441.252 28.8763L444.515 27.5379C445.096 28.9067 446.519 30.5219 448.812 30.5219C451.624 30.5219 453.367 28.8119 453.367 25.5929V24.3834H453.236C452.398 25.4033 450.782 26.2943 448.743 26.2943C444.476 26.2943 440.567 22.6317 440.567 17.9188C440.567 13.1718 444.476 9.47882 448.743 9.47882C450.778 9.47882 452.394 10.3698 453.236 11.3594H453.367V9.99068H456.926V9.98689ZM453.633 17.9188C453.633 14.9576 451.628 12.7926 449.077 12.7926C446.492 12.7926 444.326 14.9576 444.326 17.9188C444.326 20.8496 446.492 22.9843 449.077 22.9843C451.628 22.9843 453.633 20.8496 453.633 17.9188Z" fill="#4285F4"/>
<path d="M462.793 1.13745V25.7825H459.138V1.13745H462.793Z" fill="#34A853"/>
<path d="M477.036 20.6563L479.945 22.5673C479.006 23.936 476.744 26.2944 472.835 26.2944C467.987 26.2944 464.367 22.6014 464.367 17.8847C464.367 12.8837 468.018 9.4751 472.415 9.4751C476.844 9.4751 479.01 12.9481 479.718 14.825L480.106 15.7804L468.699 20.4364C469.572 22.1237 470.93 22.9844 472.835 22.9844C474.743 22.9844 476.066 22.0592 477.036 20.6563ZM468.083 17.6307L475.709 14.5103C475.289 13.46 474.027 12.7282 472.542 12.7282C470.638 12.7282 467.987 14.3851 468.083 17.6307Z" fill="#EA4335"/>
<path d="M389.806 15.7008V12.1329H402.006C402.125 12.7548 402.187 13.4903 402.187 14.2865C402.187 16.9634 401.444 20.2734 399.051 22.6317C396.724 25.0204 393.75 26.2943 389.81 26.2943C382.508 26.2943 376.368 20.4326 376.368 13.2363C376.368 6.03994 382.508 0.178223 389.81 0.178223C393.85 0.178223 396.728 1.74034 398.89 3.77639L396.335 6.29397C394.785 4.86077 392.684 3.74606 389.806 3.74606C384.474 3.74606 380.303 7.98121 380.303 13.2363C380.303 18.4914 384.474 22.7265 389.806 22.7265C393.265 22.7265 395.235 21.3578 396.497 20.1141C397.52 19.1056 398.193 17.6648 398.459 15.697L389.806 15.7008Z" fill="#4285F4"/>
</g>
<g clip-path="url(#clip3)">
<path d="M614.254 19.9017L613.348 22.4628H613.273C613.122 21.8853 612.845 21.0065 612.392 19.9519L607.536 7.77409H602.78V27.1833H605.925V15.2063C605.925 14.4531 605.925 13.5994 605.9 12.5448C605.875 12.0175 605.825 11.6158 605.799 11.3145H605.875C606.026 12.0677 606.202 12.6201 606.328 12.9716L612.166 27.1331H614.38L620.168 12.8461C620.293 12.5197 620.419 11.8669 620.545 11.3145H620.621C620.545 12.7457 620.495 14.0262 620.47 14.8046V27.108H623.816V7.72387H619.237L614.254 19.9017ZM626.987 13.1976H630.258V27.108H626.987V13.1976ZM628.648 7.32213C628.094 7.32213 627.641 7.523 627.264 7.87453C626.886 8.22605 626.685 8.67802 626.685 9.23041C626.685 9.7577 626.886 10.2097 627.264 10.5612C627.641 10.9127 628.094 11.0885 628.648 11.0885C629.201 11.0885 629.679 10.8876 630.032 10.5612C630.409 10.2097 630.61 9.7577 630.61 9.23041C630.61 8.70312 630.409 8.25116 630.032 7.87453C629.705 7.523 629.226 7.32213 628.648 7.32213ZM641.858 13.0721C641.255 12.9465 640.625 12.8712 640.022 12.8712C638.537 12.8712 637.178 13.1976 636.046 13.8505C634.913 14.5033 634.007 15.4072 633.429 16.5371C632.825 17.6921 632.523 19.0229 632.523 20.5546C632.523 21.8853 632.825 23.0655 633.404 24.1451C633.982 25.1997 634.788 26.0534 635.87 26.6309C636.901 27.2084 638.109 27.5097 639.468 27.5097C641.028 27.5097 642.362 27.1833 643.419 26.5807L643.444 26.5556V23.5425L643.318 23.643C642.84 23.9945 642.286 24.2958 641.733 24.4716C641.154 24.6724 640.625 24.7729 640.172 24.7729C638.864 24.7729 637.832 24.3962 637.103 23.5676C636.348 22.7641 635.97 21.6594 635.97 20.2784C635.97 18.8471 636.348 17.7172 637.128 16.8886C637.908 16.0601 638.939 15.6332 640.198 15.6332C641.255 15.6332 642.337 15.9847 643.318 16.6878L643.444 16.7882V13.5994L643.419 13.5743C642.991 13.3985 642.513 13.1976 641.858 13.0721ZM652.653 12.9716C651.848 12.9716 651.093 13.2227 650.439 13.75C649.886 14.202 649.508 14.8548 649.181 15.6332H649.156V13.1976H645.885V27.108H649.156V20.0022C649.156 18.7969 649.407 17.7926 649.961 17.0644C650.515 16.3111 651.219 15.9345 652.075 15.9345C652.377 15.9345 652.679 16.0098 653.056 16.0601C653.408 16.1605 653.66 16.2609 653.836 16.3865L653.962 16.4869V13.2227L653.887 13.1976C653.66 13.047 653.207 12.9716 652.653 12.9716ZM661.561 12.8963C659.271 12.8963 657.435 13.5743 656.151 14.905C654.843 16.2358 654.214 18.0688 654.214 20.3788C654.214 22.5382 654.868 24.2958 656.126 25.5764C657.384 26.8318 659.095 27.4846 661.234 27.4846C663.474 27.4846 665.26 26.8067 666.544 25.4508C667.852 24.0949 668.481 22.2871 668.481 20.0524C668.481 17.8428 667.877 16.0852 666.644 14.8046C665.462 13.524 663.725 12.8963 661.561 12.8963ZM664.178 23.5927C663.574 24.3711 662.618 24.7478 661.436 24.7478C660.253 24.7478 659.297 24.3711 658.617 23.5425C657.938 22.7641 657.611 21.6342 657.611 20.203C657.611 18.7216 657.963 17.5917 658.617 16.7882C659.297 15.9847 660.228 15.583 661.41 15.583C662.568 15.583 663.474 15.9596 664.128 16.738C664.782 17.5164 665.135 18.6463 665.135 20.1277C665.084 21.6342 664.807 22.8144 664.178 23.5927ZM675.779 18.9727C674.747 18.5458 674.093 18.2194 673.791 17.9432C673.539 17.6921 673.413 17.3406 673.413 16.8886C673.413 16.512 673.564 16.1354 673.942 15.8843C674.319 15.6332 674.747 15.5077 675.376 15.5077C675.93 15.5077 676.508 15.6081 677.062 15.7587C677.616 15.9094 678.119 16.1354 678.521 16.4367L678.647 16.5371V13.4738L678.572 13.4487C678.194 13.2981 677.691 13.1474 677.087 13.0219C676.483 12.9214 675.93 12.8712 675.477 12.8712C673.917 12.8712 672.633 13.2478 671.627 14.0764C670.62 14.8548 670.142 15.9094 670.142 17.1397C670.142 17.7926 670.243 18.3701 670.469 18.8471C670.696 19.3242 671.023 19.7762 671.476 20.1528C671.929 20.5043 672.583 20.9061 673.489 21.2827C674.244 21.6091 674.822 21.8602 675.175 22.0611C675.527 22.262 675.753 22.4879 675.93 22.6637C676.055 22.8646 676.131 23.1157 676.131 23.4421C676.131 24.3711 675.426 24.8231 673.992 24.8231C673.438 24.8231 672.86 24.7226 672.18 24.4967C671.501 24.2707 670.872 23.9443 670.343 23.5676L670.218 23.4672V26.656L670.293 26.6811C670.771 26.9071 671.35 27.0578 672.054 27.2335C672.759 27.3591 673.388 27.4595 673.942 27.4595C675.628 27.4595 677.012 27.0829 677.993 26.2543C679 25.4508 679.528 24.4213 679.528 23.0906C679.528 22.1615 679.276 21.3329 678.723 20.7052C677.993 20.1026 677.087 19.4749 675.779 18.9727ZM688.159 12.8963C685.869 12.8963 684.032 13.5743 682.749 14.905C681.466 16.2358 680.811 18.0688 680.811 20.3788C680.811 22.5382 681.466 24.2958 682.724 25.5764C683.982 26.8318 685.693 27.4846 687.832 27.4846C690.071 27.4846 691.858 26.8067 693.141 25.4508C694.45 24.0949 695.079 22.2871 695.079 20.0524C695.079 17.8428 694.475 16.0852 693.242 14.8046C692.059 13.524 690.323 12.8963 688.159 12.8963ZM690.751 23.5927C690.147 24.3711 689.191 24.7478 688.008 24.7478C686.8 24.7478 685.869 24.3711 685.19 23.5425C684.51 22.7641 684.183 21.6342 684.183 20.203C684.183 18.7216 684.535 17.5917 685.19 16.7882C685.869 15.9847 686.8 15.583 687.983 15.583C689.115 15.583 690.046 15.9596 690.7 16.738C691.355 17.5164 691.707 18.6463 691.707 20.1277C691.707 21.6342 691.38 22.8144 690.751 23.5927ZM712.567 15.8843V13.1976H709.271V9.07976L709.17 9.10487L706.05 10.0339L705.975 10.059V13.1976H701.043V11.44C701.043 10.6365 701.244 10.0088 701.596 9.60705C701.948 9.2053 702.477 9.00443 703.131 9.00443C703.584 9.00443 704.062 9.10487 704.591 9.33085L704.716 9.40618V6.56886L704.641 6.54375C704.188 6.3931 703.584 6.29266 702.804 6.29266C701.823 6.29266 700.967 6.51864 700.187 6.89528C699.407 7.32213 698.828 7.89964 698.4 8.67802C697.973 9.43128 697.746 10.285 697.746 11.2642V13.1976H695.456V15.8592H697.746V27.108H701.043V15.8843H705.975V23.0403C705.975 25.9781 707.359 27.4595 710.127 27.4595C710.579 27.4595 711.058 27.3842 711.511 27.3089C711.989 27.2084 712.341 27.0829 712.542 26.9825L712.567 26.9573V24.2707L712.442 24.3711C712.24 24.4967 712.064 24.5971 711.762 24.6724C711.511 24.7478 711.284 24.7729 711.108 24.7729C710.454 24.7729 710.001 24.6222 709.674 24.2456C709.372 23.8941 709.221 23.3165 709.221 22.4628V15.8843H712.567Z" fill="#737373"/>
<path d="M560.606 1.24579H576.031V16.6376H560.606V1.24579Z" fill="#F25022"/>
<path d="M577.641 1.24579H593.067V16.6376H577.641V1.24579Z" fill="#7FBA00"/>
<path d="M560.606 18.2446H576.031V33.6364H560.606V18.2446Z" fill="#00A4EF"/>
<path d="M577.641 18.2446H593.067V33.6364H577.641V18.2446Z" fill="#FFB900"/>
</g>
<g clip-path="url(#clip4)">
<path opacity="0.8" d="M841.534 12.7667V14.6023H841.59C842.251 13.6195 843.348 12.4621 845.778 12.4621C847.669 12.4621 849.12 13.4246 849.741 14.8785H849.797C850.328 14.1434 850.937 13.587 851.619 13.1931C852.427 12.7261 853.325 12.458 854.456 12.458C857.016 12.458 859.282 14.1231 859.282 18.3224V26.2863H855.379V18.8787C855.379 16.7507 854.611 15.5202 853.014 15.5202C851.844 15.5202 850.993 16.2593 850.669 17.169C850.557 17.4817 850.505 17.9081 850.505 18.2655V26.2904H846.603V18.5782C846.603 16.771 845.864 15.5161 844.289 15.5161C843.028 15.5161 842.238 16.4502 841.914 17.2502C841.776 17.5914 841.733 17.9853 841.733 18.3549V26.2863H837.826V12.7667H841.534ZM879.426 12.7667V15.3171H879.534C880.251 13.3677 881.951 12.4621 883.445 12.4621C883.821 12.4621 884.028 12.4905 884.33 12.5474V16.0887C883.972 16.04 883.639 15.9913 883.173 15.9913C881.481 15.9913 880.302 16.9172 880.004 18.367C879.94 18.6676 879.918 18.9925 879.918 19.3661V26.2904H875.912V12.7667H879.426ZM889.77 8.28723V12.5433H893.154V15.9872H889.77V21.0677C889.77 22.7125 890.215 23.5085 891.536 23.5085C892.157 23.5085 892.615 23.4354 893.012 23.342L893.064 26.197C892.533 26.3838 891.402 26.5868 890.253 26.5868C888.902 26.5868 887.775 26.1442 887.089 25.4578C886.303 24.674 885.941 23.3907 885.941 21.5632V8.28723H889.77ZM835.106 26.2863H831.221V8.28723H835.106V26.2863ZM824.745 21.4576C824.745 21.7053 824.723 21.9652 824.65 22.1886C824.348 23.1267 823.316 23.9186 822.03 23.9186C820.955 23.9186 820.1 23.346 820.1 22.1317C820.1 20.2758 822.276 19.76 824.749 19.7722V21.4576H824.745ZM828.626 18.2208C828.626 15.1547 827.236 12.4621 822.535 12.4621C820.121 12.4621 818.205 13.0997 817.16 13.6683L817.924 16.1293C818.878 15.5608 820.402 15.0937 821.844 15.0937C824.231 15.0897 824.62 16.3649 824.62 17.1812V17.3761C819.418 17.368 816.132 19.0615 816.132 22.5135C816.132 24.6212 817.803 26.5949 820.713 26.5949C822.504 26.5949 823.998 25.9249 824.896 24.8486H824.982C824.982 24.8486 825.578 27.1838 828.851 26.2904C828.678 25.3157 828.622 24.2801 828.622 23.0333V18.2208H828.626ZM796.614 8.28723C797.016 10.1919 798.156 15.7232 798.156 15.7232C798.635 17.9975 799.075 20.3814 799.408 22.2657H799.468C799.792 20.2636 800.301 18.367 800.845 16.0197L802.766 8.28723H807.019L808.815 16.2187C809.285 18.4239 809.661 20.1255 809.959 22.1764H810.015C810.339 20.1052 810.762 18.3345 811.224 16.0684L812.951 8.28723H817.03L811.975 26.2863C808.754 26.9483 807.52 25.7299 807.079 23.7968C806.639 21.8596 805.775 18.1762 805.775 18.1762C805.331 16.1578 804.985 14.7364 804.744 12.6652H804.683C804.338 14.7161 803.975 16.1537 803.44 18.1721L801.32 26.2904C798.031 26.9077 796.891 25.9939 796.26 23.5125C795.717 21.3885 792.323 8.29129 792.323 8.29129H796.614V8.28723ZM869.436 21.4576C869.436 21.7053 869.415 21.9652 869.341 22.1886C869.039 23.1267 868.007 23.9186 866.721 23.9186C865.646 23.9186 864.791 23.346 864.791 22.1317C864.791 20.2758 866.967 19.76 869.44 19.7722V21.4576H869.436ZM873.317 18.2208C873.317 15.1547 871.927 12.4621 867.226 12.4621C864.812 12.4621 862.896 13.0997 861.851 13.6683L862.615 16.1293C863.569 15.5608 865.093 15.0937 866.535 15.0937C868.918 15.0897 869.311 16.3649 869.311 17.1812V17.3761C864.113 17.368 860.828 19.0615 860.828 22.5135C860.828 24.6212 862.503 26.5949 865.408 26.5949C867.195 26.5949 868.694 25.9249 869.587 24.8486H869.678C869.678 24.8486 870.274 27.1838 873.546 26.2904C873.373 25.3157 873.317 24.2801 873.317 23.0333V18.2208Z" fill="#041E42"/>
<path d="M908.905 20.0873C909.288 20.7446 909.262 21.4782 908.853 21.8132L901.787 26.6943C901.051 27.1141 899.95 26.6053 899.326 25.5408C898.697 24.4722 898.809 23.2805 899.545 22.8607L907.368 19.2731C907.859 19.0865 908.522 19.43 908.905 20.0873ZM918.204 20.0873C918.591 19.43 919.25 19.0907 919.74 19.2688L927.568 22.8565C928.304 23.2763 928.411 24.4679 927.787 25.5366C927.159 26.601 926.053 27.1057 925.322 26.6901L918.256 21.809C917.851 21.4782 917.821 20.7403 918.204 20.0873ZM913.552 22.7335C914.323 22.7335 914.955 23.1236 915.041 23.6368L915.803 32.1097C915.803 32.9494 914.809 33.6364 913.557 33.6364C912.309 33.6364 911.31 32.9494 911.31 32.1097L912.068 23.6368C912.154 23.1236 912.786 22.7335 913.552 22.7335ZM918.256 13.0731L925.322 8.18784C926.053 7.76801 927.159 8.27265 927.787 9.34131C928.411 10.41 928.304 11.6016 927.568 12.0214L919.74 15.6133C919.25 15.7914 918.587 15.4522 918.204 14.7949C917.821 14.1376 917.851 13.4039 918.256 13.0731ZM907.368 15.6133L899.545 12.0214C898.814 11.6016 898.702 10.41 899.326 9.34131C899.95 8.27265 901.056 7.76801 901.787 8.18784L908.853 13.0731C909.262 13.3997 909.288 14.1376 908.905 14.7949C908.522 15.4522 907.859 15.7914 907.368 15.6133ZM912.068 11.2454L911.31 2.77245C911.31 1.93278 912.304 1.24579 913.557 1.24579C914.809 1.24579 915.803 1.93278 915.803 2.77245L915.041 11.2454C914.955 11.7543 914.323 12.1487 913.552 12.1487C912.786 12.1487 912.154 11.7543 912.068 11.2454ZM929.698 26.6604V26.4484H929.892C929.956 26.4484 929.999 26.4908 929.999 26.5544C929.999 26.6137 929.956 26.6604 929.892 26.6604H929.698ZM929.539 27.0463C929.539 27.0675 929.556 27.0887 929.582 27.0887H929.664C929.685 27.0887 929.707 27.0675 929.707 27.0463V26.8046H929.84L929.948 27.059C929.956 27.076 929.969 27.0887 929.986 27.0887H930.085C930.116 27.0887 930.137 27.059 930.124 27.0293C930.085 26.953 930.047 26.8724 930.008 26.7918C930.072 26.7706 930.171 26.707 930.171 26.5544C930.171 26.3932 930.038 26.2999 929.905 26.2999H929.582C929.56 26.2999 929.539 26.3211 929.539 26.3423V27.0463ZM929.19 26.6943C929.19 26.3508 929.474 26.0709 929.823 26.0709C930.171 26.0709 930.455 26.3466 930.455 26.6943C930.455 27.0378 930.176 27.3177 929.823 27.3177C929.47 27.3177 929.19 27.0378 929.19 26.6943ZM929.04 26.6943C929.04 27.1184 929.388 27.4661 929.823 27.4661C930.253 27.4661 930.606 27.1184 930.606 26.6943C930.606 26.2702 930.253 25.9225 929.823 25.9225C929.388 25.9225 929.04 26.2702 929.04 26.6943Z" fill="#FFC124"/>
</g>
<g clip-path="url(#clip5)">
<path d="M1084.45 31.4957L1092.76 22.2902L1084.45 13.0835H1093.22L1097.34 17.5555L1101.3 13.0835H1109.76L1101.49 22.2522L1109.88 31.4957H1101.07L1096.99 26.9869L1092.95 31.4957H1084.45Z" fill="#FF6600"/>
<path d="M1084.45 8.95617H1075.04V13.0835H1084.45V19.3038H1075.04V25.0132H1084.45V31.4957H1068.12V2.49158H1084.45V8.95617Z" fill="#FF6600"/>
<path d="M1061.23 2.49158V14.3615H1061.15C1059.63 12.6333 1057.72 12.0328 1055.51 12.0328C1050.98 12.0328 1047.57 15.0679 1046.37 19.0808C1045.01 14.6592 1041.48 11.9499 1036.26 11.9499C1032.02 11.9499 1028.67 13.8267 1026.92 16.885V13.0839H1018.15V8.95702H1027.72V2.49158H1010.34V31.4962H1018.15V19.3038H1025.94C1025.71 20.1995 1025.59 21.1584 1025.59 22.1702C1025.59 28.2205 1030.28 32.4657 1036.26 32.4657C1041.29 32.4657 1044.61 30.137 1046.36 25.8914H1039.66C1038.76 27.1668 1038.07 27.5456 1036.26 27.5456C1034.16 27.5456 1032.35 25.7393 1032.35 23.5981H1045.99C1046.58 28.4037 1050.38 32.5482 1055.59 32.5482C1057.84 32.5482 1059.89 31.4581 1061.15 29.6176H1061.23V31.4953H1068.12V2.49158H1061.23ZM1032.57 19.3905C1033 17.5483 1034.45 16.3442 1036.26 16.3442C1038.25 16.3442 1039.63 17.5111 1039.99 19.3905C1040.14 19.3905 1032.57 19.3905 1032.57 19.3905ZM1057.05 27.0797C1054.51 27.0797 1052.93 24.7471 1052.93 22.3116C1052.93 19.7083 1054.3 17.2049 1057.05 17.2049C1059.89 17.2049 1061.03 19.7083 1061.03 22.3116C1061.03 24.7804 1059.83 27.0797 1057.05 27.0797Z" fill="#652C8F"/>
</g>
<defs>
<clipPath id="clip0">
<rect width="112.121" height="34.8822" fill="white"/>
</clipPath>
<clipPath id="clip1">
<rect width="104.646" height="29.899" fill="white" transform="translate(191.852 2.49158)"/>
</clipPath>
<clipPath id="clip2">
<rect width="104.646" height="34.8822" fill="white" transform="translate(376.229)"/>
</clipPath>
<clipPath id="clip3">
<rect width="151.987" height="32.3906" fill="white" transform="translate(560.606 1.24579)"/>
</clipPath>
<clipPath id="clip4">
<rect width="138.283" height="32.3906" fill="white" transform="translate(792.323 1.24579)"/>
</clipPath>
<clipPath id="clip5">
<rect width="99.6633" height="29.899" fill="white" transform="translate(1010.34 2.49158)"/>
</clipPath>
</defs>
</svg>
